<?xml version="1.0" encoding="utf-8"?>
<svg width="35" height="35" viewBox="0 0 3093.097 3758.701" xmlns="http://www.w3.org/2000/svg">
  <path fill-rule="nonzero" fill="rgb(19.213867%, 10.205078%, 7.054138%)" fill-opacity="1" d="M 1126.536 2890.611 C 1125.901 2890.611 1125.268 2890.643 1124.633 2890.665 C 1105.802 2892.51 1090.859 2909.08 1089.085 2930.059 L 1023.786 3679.45 C 1022.636 3692.775 1027.056 3705.921 1035.727 3715.145 C 1044.409 3724.369 1056.409 3728.665 1068.283 3726.766 L 1362.858 3680.39 C 1374.532 3678.578 1384.829 3670.999 1390.945 3659.745 C 1397.03 3648.484 1398.249 3634.799 1394.263 3622.414 L 1164.87 2919.399 C 1159.082 2901.524 1143.582 2889.881 1126.556 2890.611 L 1126.536 2890.611 Z M 1126.536 2890.611" style=""/>
  <path fill-rule="nonzero" fill="rgb(19.213867%, 10.205078%, 7.054138%)" fill-opacity="1" d="M 927.784 2808.595 C 921.689 2808.54 915.653 2810.097 910.203 2813.092 L 39.026 3286.401 C 28.013 3292.433 20.205 3303.857 17.866 3317.233 C 15.556 3330.666 18.986 3344.498 27.151 3354.673 L 273.404 3661.047 C 280.838 3670.316 291.462 3675.64 302.629 3675.64 C 313.788 3675.64 324.393 3670.316 331.826 3661.047 L 956.445 2881.395 C 966.722 2868.636 969.358 2850.365 963.175 2834.666 C 957.009 2818.98 943.155 2808.794 927.784 2808.595 Z M 927.784 2808.595" style=""/>
  <path fill-rule="nonzero" fill="rgb(19.213867%, 10.205078%, 7.054138%)" fill-opacity="1" d="M 354.71 2488.91 C 343.806 2489.418 333.579 2494.929 326.504 2504.154 C 319.417 2513.402 316.126 2525.53 317.396 2537.584 L 346.284 2815.322 C 347.663 2828.369 354.204 2840.014 364.123 2847.061 C 374.043 2854.131 386.273 2855.823 397.462 2851.724 L 782.102 2710.295 C 798.236 2704.243 809.019 2687.275 808.771 2668.294 C 808.513 2649.315 797.303 2632.691 781.011 2627.178 L 367.443 2490.887 C 363.341 2489.45 359.049 2488.798 354.739 2488.91 L 354.71 2488.91 Z M 354.71 2488.91" style=""/>
  <path fill-rule="nonzero" fill="rgb(19.213867%, 10.205078%, 7.054138%)" fill-opacity="1" d="M 2238.823 1309.14 C 2125.42 1306.2 1998.695 1318.132 1869.783 1359.083 C 1760.163 1393.893 1703.407 1475.256 1691.762 1570.065 C 1680.088 1664.86 1702.217 1770.317 1724.109 1884.546 C 1767.874 2112.993 1815.067 2367.919 1654.113 2599.491 C 1578.835 2707.801 1480.277 2786.932 1371.789 2844.996 C 1359.232 2851.636 1350.806 2865.212 1349.587 2880.624 C 1348.399 2896.068 1354.642 2911.059 1365.98 2919.996 C 1406.701 2952.233 1438.821 2997.967 1477.233 3047.967 C 1515.665 3097.968 1561.023 3151.734 1628.108 3191.326 C 1762.265 3270.567 1973.474 3287.816 2383.664 3154.928 C 2745.677 3037.672 2939.961 2742.167 2951.635 2398.123 C 2963.281 2054.089 2798.65 1664.991 2466.346 1341.352 C 2460.865 1335.972 2454.165 1332.381 2446.991 1331.023 C 2385.952 1319.91 2315.7 1311.114 2238.823 1309.14 Z M 2238.823 1309.14" style=""/>
  <path fill-rule="nonzero" fill="rgb(19.213867%, 10.205078%, 7.054138%)" fill-opacity="1" d="M 2357.51 1079.973 C 2339.622 1080.539 2324.351 1094.545 2320.416 1114.032 C 2316.48 1133.509 2324.907 1153.448 2340.842 1162.496 L 2954.48 1510.805 C 2965.897 1517.291 2979.415 1517.115 2990.702 1510.387 C 3002 1503.627 3009.611 1491.152 3011.107 1476.959 L 3042.285 1167.953 C 3043.475 1156.058 3040.204 1144.148 3033.245 1135.012 C 3026.329 1125.875 3016.301 1120.308 3005.598 1119.623 L 2360.781 1079.973 C 2359.692 1079.917 2358.57 1079.917 2357.48 1079.973 L 2357.51 1079.973 Z M 2357.51 1079.973" style=""/>
  <path fill-rule="nonzero" fill="rgb(19.213867%, 10.205078%, 7.054138%)" fill-opacity="1" d="M 2506.156 567.415 C 2496.612 567.581 2487.504 571.6 2480.458 578.747 L 2195.446 863.204 C 2183.008 875.623 2179.005 895.474 2185.477 912.61 C 2191.938 929.774 2207.466 940.468 2224.107 939.254 L 2665.434 909.249 C 2679.536 908.345 2692.143 899.032 2698.357 884.891 C 2704.6 870.749 2703.509 853.958 2695.493 840.945 L 2538.808 586.413 C 2531.447 574.394 2519.196 567.271 2506.156 567.415 Z M 2506.156 567.415" style=""/>
  <path fill-rule="nonzero" fill="rgb(19.213867%, 10.205078%, 7.054138%)" fill-opacity="1" d="M 2100.377 24.22 C 2081.655 24.927 2065.998 40.338 2063.064 60.952 L 1955 814.871 C 1951.99 835.431 1962.444 855.516 1979.945 862.807 C 1997.476 870.077 2017.158 862.52 2026.98 844.789 L 2395.794 179.203 C 2402.215 167.658 2403.455 153.44 2399.114 140.735 C 2394.803 128.044 2385.438 118.309 2373.773 114.411 L 2113.062 26.197 C 2108.978 24.762 2104.668 24.107 2100.377 24.22 Z M 2100.377 24.22" style=""/>
  <path fill-rule="nonzero" fill="rgb(19.213867%, 10.205078%, 7.054138%)" fill-opacity="1" d="M 1201.756 785.885 C 785.6 791.817 433.585 976.13 240.718 1217.313 C 144.311 1337.895 87.158 1474.075 87.028 1610.64 C 86.902 1747.206 146.266 1880.78 269.419 1986.325 C 527.762 2207.766 745.117 2393.571 929.508 2551.15 C 940.569 2560.627 955.304 2562.838 968.218 2556.951 C 1138.834 2478.922 1246.818 2394.31 1310.721 2299.516 C 1374.633 2204.685 1391.024 2100.444 1382.163 1998.94 C 1364.453 1795.914 1258.79 1594.125 1236.768 1393.164 C 1230.197 1333.034 1243.467 1286.767 1272.338 1244.005 C 1301.235 1201.217 1347.458 1163.039 1405.255 1130.967 C 1520.838 1066.828 1680.573 1027.688 1822.925 1003.361 C 1840.378 1000.203 1853.778 984.382 1855.601 964.784 C 1857.434 945.164 1847.235 926.638 1830.745 919.565 C 1620.726 832.185 1396.454 783.112 1201.756 785.885 Z M 1201.756 785.885" style=""/>
  <path fill-rule="nonzero" fill="rgb(99.609375%, 74.414062%, 25.097656%)" fill-opacity="1" d="M 1150.103 3130.148 L 1304.099 3601.458 L 1106.746 3632.733 L 1150.103 3130.148 Z M 1150.103 3130.148" style=""/>
  <path fill-rule="nonzero" fill="rgb(99.609375%, 74.414062%, 25.097656%)" fill-opacity="1" d="M 765.363 2988.632 L 302.629 3566.327 L 120.011 3339.228 L 765.363 2988.632 Z M 765.363 2988.632" style=""/>
  <path fill-rule="nonzero" fill="rgb(99.609375%, 74.414062%, 25.097656%)" fill-opacity="1" d="M 402.031 2593.35 L 638.482 2671.012 L 418.571 2751.811 L 402.031 2593.35 Z M 402.031 2593.35" style=""/>
  <path fill-rule="nonzero" fill="rgb(99.609375%, 74.414062%, 25.097656%)" fill-opacity="1" d="M 2237.149 1396.411 C 2304.915 1398.169 2365.884 1406.476 2421.214 1416.098 C 2733.806 1724.504 2883.691 2087.341 2873.245 2394.897 C 2862.71 2705.26 2697.85 2962.251 2361.723 3071.134 C 1960.186 3201.227 1772.691 3178.149 1664.509 3114.262 C 1610.448 3082.357 1573.582 3039.118 1536.823 2991.262 C 1510.186 2956.649 1478.502 2921.863 1446.046 2888.125 C 1545.655 2828.084 1642.696 2758.374 1715.993 2652.938 C 1898.68 2390.069 1844.591 2095.46 1800.726 1866.473 C 1778.786 1751.957 1760.641 1651.537 1769.222 1581.994 C 1777.764 1512.452 1801.915 1471.136 1891.199 1442.8 C 2010.877 1404.752 2129.958 1393.637 2237.149 1396.411 Z M 2237.149 1396.411" style=""/>
  <path fill-rule="nonzero" fill="rgb(99.609375%, 74.414062%, 25.097656%)" fill-opacity="1" d="M 2541.753 1178.626 L 2959.979 1204.101 L 2939.763 1404.444 L 2541.753 1178.626 Z M 2541.753 1178.626" style=""/>
  <path fill-rule="nonzero" fill="rgb(99.609375%, 74.414062%, 25.097656%)" fill-opacity="1" d="M 1202.925 872.849 C 1337.615 870.928 1494.654 920.672 1647.236 967.899 C 1551.363 991.685 1451.755 1007.781 1370.34 1052.962 C 1305.517 1088.91 1249.148 1133.344 1209.903 1191.485 C 1170.627 1249.639 1150.153 1322.373 1159.032 1403.481 C 1183.769 1629.19 1289.314 1834.117 1304.407 2007.282 C 1311.968 2093.848 1300.115 2170.24 1248.364 2246.995 C 1199.446 2319.533 1102.483 2392.807 955.563 2463.514 C 775.106 2309.326 566.939 2131.296 317.089 1917.093 C 209.006 1824.449 165.273 1719.831 165.37 1610.64 C 165.45 1501.449 212.049 1384.249 299.201 1275.289 C 473.474 1057.35 807.145 878.472 1202.925 872.849 Z M 1202.925 872.849" style=""/>
  <path fill-rule="nonzero" fill="rgb(99.609375%, 74.414062%, 25.097656%)" fill-opacity="1" d="M 2499.258 676.947 L 2591.701 827.145 L 2331.555 844.537 L 2499.258 676.947 Z M 2499.258 676.947" style=""/>
  <path fill-rule="nonzero" fill="rgb(99.609375%, 74.414062%, 25.097656%)" fill-opacity="1" d="M 2133.337 124.131 L 2302.428 181.743 L 2063.064 613.514 L 2133.337 124.131 Z M 2133.337 124.131" style=""/>
</svg>